<?xml version="1.0" encoding="UTF-8"?>
<!DOCTYPE svg PUBLIC "-//W3C//DTD SVG 1.1//EN"
    "http://www.w3.org/Graphics/SVG/1.1/DTD/svg11.dtd" >
<svg contentScriptType="text/ecmascript" width="957px"
     xmlns:xlink="http://www.w3.org/1999/xlink" zoomAndPan="magnify"
     contentStyleType="text/css" viewBox="-211 -204 486 427" height="841px"
     preserveAspectRatio="xMidYMid meet" xmlns="http://www.w3.org/2000/svg"
     version="1.1">
    <g id="edges">
        <path fill="none" stroke-width="1.2796056"
              d="M -146.682419,151.917526 C -135.021973,128.626678 -82.595032,111.181061 -59.304184,122.841507"
              class="n0 n34" stroke-opacity="0.4" stroke="#6898b9"/>
        <path fill="none" stroke-width="0.7835242"
              d="M -146.682419,151.917526 C -162.047882,125.978767 -146.187958,64.022453 -120.249207,48.656990"
              class="n0 n50" stroke-opacity="0.4" stroke="#87acc6"/>
        <path fill="none" stroke-width="0.7047753"
              d="M -146.682419,151.917526 C -139.817062,103.253899 -56.523609,40.556511 -7.859985,47.421860"
              class="n0 n63" stroke-opacity="0.4" stroke="#75a1bf"/>
        <path fill="none" stroke-width="2.1783195"
              d="M -183.625122,15.014812 C -168.762192,-51.491432 -46.708420,-128.956390 19.797825,-114.093460"
              class="n4 n5" stroke-opacity="0.4" stroke="#c9d4e4"/>
        <path fill="none" stroke-width="8.166868"
              d="M -183.625122,15.014812 C -183.346298,-6.498297 -150.658386,-38.349720 -129.145279,-38.070892"
              class="n4 n9" stroke-opacity="0.4" stroke="#b7c9dc"/>
        <path fill="none" stroke-width="0.03957018"
              d="M -183.625122,15.014812 C -174.938416,-31.792984 -91.696655,-88.974617 -44.888859,-80.287910"
              class="n4 n10" stroke-opacity="0.4" stroke="#97b5ce"/>
        <path fill="none" stroke-width="1.5600344"
              d="M -183.625122,15.014812 C -137.195602,11.715967 -62.603035,76.411980 -59.304184,122.841507"
              class="n4 n34" stroke-opacity="0.4" stroke="#6697b8"/>
        <path fill="none" stroke-width="0.43993956"
              d="M -183.625122,15.014812 C -136.274399,-54.137344 38.479927,-86.839493 107.632080,-39.488773"
              class="n4 n43" stroke-opacity="0.4" stroke="#b2c6da"/>
        <path fill="none" stroke-width="1.6027067"
              d="M -183.625122,15.014812 C -162.404282,-11.159119 -91.312141,-18.588764 -65.138214,2.632068"
              class="n4 n49" stroke-opacity="0.4" stroke="#a7bfd5"/>
        <path fill="none" stroke-width="1.3391565"
              d="M -183.625122,15.014812 C -141.990677,-13.656805 -36.531601,5.787422 -7.859985,47.421860"
              class="n4 n63" stroke-opacity="0.4" stroke="#739fbe"/>
        <path fill="none" stroke-width="1.6698586"
              d="M -183.625122,15.014812 C -199.913788,-18.733292 -173.724609,-93.788422 -139.976501,-110.077080"
              class="n4 n73" stroke-opacity="0.4" stroke="#ced8e6"/>
        <path fill="none" stroke-width="6.299046"
              d="M 19.797825,-114.093460 C 37.188663,-97.253311 38.014702,-45.906837 21.174559,-28.516001"
              class="n5 n8" stroke-opacity="0.4" stroke="#82a8c4"/>
        <path fill="none" stroke-width="0.7069269"
              d="M 19.797825,-114.093460 C 5.213719,-69.100327 -84.152145,-23.486786 -129.145279,-38.070892"
              class="n5 n9" stroke-opacity="0.4" stroke="#b8cadc"/>
        <path fill="none" stroke-width="6.199226"
              d="M 19.797825,-114.093460 C 13.621597,-94.395012 -25.190413,-74.111679 -44.888859,-80.287910"
              class="n5 n10" stroke-opacity="0.4" stroke="#98b6ce"/>
        <path fill="none" stroke-width="4.248855"
              d="M 19.797825,-114.093460 C 8.059325,-125.282158 7.234622,-159.672958 18.423321,-171.411453"
              class="n5 n15" stroke-opacity="0.4" stroke="#cdd7e6"/>
        <path fill="none" stroke-width="0.6328443"
              d="M 19.797825,-114.093460 C 79.843452,-102.318100 152.248840,5.413364 140.473480,65.458992"
              class="n5 n33" stroke-opacity="0.4" stroke="#85aac5"/>
        <path fill="none" stroke-width="0.49803728"
              d="M 19.797825,-114.093460 C 34.555580,-127.451004 76.728539,-125.350693 90.086082,-110.592941"
              class="n5 n35" stroke-opacity="0.4" stroke="#cdd7e5"/>
        <path fill="none" stroke-width="4.4761887"
              d="M 19.797825,-114.093460 C 52.285618,-116.739380 104.986168,-71.976563 107.632080,-39.488773"
              class="n5 n43" stroke-opacity="0.4" stroke="#b3c7da"/>
        <path fill="none" stroke-width="6.416108"
              d="M 19.797825,-114.093460 C 26.155722,-73.761147 -24.805904,-3.725828 -65.138214,2.632068"
              class="n5 n49" stroke-opacity="0.4" stroke="#a8c0d5"/>
        <path fill="none" stroke-width="2.6089535"
              d="M 19.797825,-114.093460 C -3.505472,-117.607155 -33.189880,-157.832642 -29.676184,-181.135941"
              class="n5 n51" stroke-opacity="0.4" stroke="#cdd7e6"/>
        <path fill="none" stroke-width="3.502833"
              d="M 19.797825,-114.093460 C 59.814682,-94.177429 89.965919,-4.278111 70.049889,35.738747"
              class="n5 n54" stroke-opacity="0.4" stroke="#7ea6c3"/>
        <path fill="none" stroke-width="0.9165711"
              d="M 19.797825,-114.093460 C 21.252064,-137.204697 58.100281,-169.690201 81.211517,-168.235947"
              class="n5 n55" stroke-opacity="0.4" stroke="#d0d9e7"/>
        <path fill="none" stroke-width="5.7129536"
              d="M 19.797825,-114.093460 C -4.061014,-103.285233 -56.061604,-122.861160 -66.869827,-146.720001"
              class="n5 n59" stroke-opacity="0.4" stroke="#cdd7e5"/>
        <path fill="none" stroke-width="1.2481393"
              d="M 19.797825,-114.093460 C 53.792446,-143.508987 148.907669,-136.640350 178.323196,-102.645729"
              class="n5 n61" stroke-opacity="0.4" stroke="#d0d9e7"/>
        <path fill="none" stroke-width="4.1102753"
              d="M 19.797825,-114.093460 C 46.569324,-76.258835 29.974640,20.650360 -7.859985,47.421860"
              class="n5 n63" stroke-opacity="0.4" stroke="#74a0be"/>
        <path fill="none" stroke-width="1.2696012"
              d="M 19.797825,-114.093460 C -11.353764,-81.335320 -107.218361,-78.925491 -139.976501,-110.077080"
              class="n5 n73" stroke-opacity="0.4" stroke="#cfd8e6"/>
        <path fill="none" stroke-width="1.3336233"
              d="M 21.174559,-28.516001 C -10.800386,-0.363012 -100.992294,-6.095945 -129.145279,-38.070892"
              class="n8 n9" stroke-opacity="0.4" stroke="#709dbd"/>
        <path fill="none" stroke-width="15.0"
              d="M 21.174559,-28.516001 C -2.392509,-25.657700 -42.030556,-56.720840 -44.888859,-80.287910"
              class="n8 n10" stroke-opacity="0.4" stroke="#5089ae"/>
        <path fill="none" stroke-width="3.6449335"
              d="M 21.174559,-28.516001 C -7.954777,-56.544842 -9.605520,-142.282120 18.423321,-171.411453"
              class="n8 n15" stroke-opacity="0.4" stroke="#86abc6"/>
        <path fill="none" stroke-width="0.4804879"
              d="M 21.174559,-28.516001 C 54.513557,-46.774006 131.909073,-24.152512 150.167084,9.186490"
              class="n8 n20" stroke-opacity="0.4" stroke="#89adc7"/>
        <path fill="none" stroke-width="1.0714147"
              d="M 21.174559,-28.516001 C 52.045338,-60.422592 146.211395,-61.976311 178.117981,-31.105532"
              class="n8 n29" stroke-opacity="0.4" stroke="#86abc6"/>
        <path fill="none" stroke-width="3.295648"
              d="M 21.174559,-28.516001 C 63.829342,-33.580788 135.408691,22.804209 140.473480,65.458992"
              class="n8 n33" stroke-opacity="0.4" stroke="#3d7da6"/>
        <path fill="none" stroke-width="2.4783661"
              d="M 21.174559,-28.516001 C 35.350311,17.851252 -12.936932,108.665756 -59.304184,122.841507"
              class="n8 n34" stroke-opacity="0.4" stroke="#1f6b99"/>
        <path fill="none" stroke-width="1.9036473"
              d="M 21.174559,-28.516001 C 18.541475,-58.713692 59.888390,-107.959854 90.086082,-110.592941"
              class="n8 n35" stroke-opacity="0.4" stroke="#85aac6"/>
        <path fill="none" stroke-width="8.883128"
              d="M 21.174559,-28.516001 C 36.271511,-48.002060 88.146019,-54.585724 107.632080,-39.488773"
              class="n8 n43" stroke-opacity="0.4" stroke="#6b9aba"/>
        <path fill="none" stroke-width="7.8454437"
              d="M 21.174559,-28.516001 C 10.141618,-5.023834 -41.646046,13.665009 -65.138214,2.632068"
              class="n8 n49" stroke-opacity="0.4" stroke="#6093b5"/>
        <path fill="none" stroke-width="1.2026168"
              d="M 21.174559,-28.516001 C 8.324405,15.203349 -76.529854,61.507145 -120.249207,48.656990"
              class="n8 n50" stroke-opacity="0.4" stroke="#3e7ea6"/>
        <path fill="none" stroke-width="2.998284"
              d="M 21.174559,-28.516001 C -19.519579,-48.869843 -50.030022,-140.441803 -29.676184,-181.135941"
              class="n8 n51" stroke-opacity="0.4" stroke="#86abc6"/>
        <path fill="none" stroke-width="8.147306"
              d="M 21.174559,-28.516001 C 43.800571,-25.440117 73.125771,13.112733 70.049889,35.738747"
              class="n8 n54" stroke-opacity="0.4" stroke="#3779a3"/>
        <path fill="none" stroke-width="1.3127762"
              d="M 21.174559,-28.516001 C 5.237961,-68.467384 41.260136,-152.299347 81.211517,-168.235947"
              class="n8 n55" stroke-opacity="0.4" stroke="#88acc7"/>
        <path fill="none" stroke-width="1.9712464"
              d="M 21.174559,-28.516001 C 55.858200,-2.463844 68.805428,88.639854 42.753269,123.323494"
              class="n8 n58" stroke-opacity="0.4" stroke="#2b729e"/>
        <path fill="none" stroke-width="3.9941628"
              d="M 21.174559,-28.516001 C -20.075121,-34.547928 -72.901749,-105.470322 -66.869827,-146.720001"
              class="n8 n59" stroke-opacity="0.4" stroke="#85aac6"/>
        <path fill="none" stroke-width="1.127277"
              d="M 21.174559,-28.516001 C 37.778339,-74.771683 132.067520,-119.249512 178.323196,-102.645729"
              class="n8 n61" stroke-opacity="0.4" stroke="#89adc7"/>
        <path fill="none" stroke-width="10.49106"
              d="M 21.174559,-28.516001 C 30.555222,-7.521519 13.134497,38.041195 -7.859985,47.421860"
              class="n8 n63" stroke-opacity="0.4" stroke="#2d739f"/>
        <path fill="none" stroke-width="0.8631959"
              d="M 21.174559,-28.516001 C -27.367872,-12.598003 -124.058510,-61.534649 -139.976501,-110.077080"
              class="n8 n73" stroke-opacity="0.4" stroke="#87acc7"/>
        <path fill="none" stroke-width="1.9452016"
              d="M -129.145279,-38.070892 C -120.737396,-63.365582 -70.183548,-88.695786 -44.888859,-80.287910"
              class="n9 n10" stroke-opacity="0.4" stroke="#86abc6"/>
        <path fill="none" stroke-width="0.6640033"
              d="M -129.145279,-38.070892 C -126.299675,-94.252731 -37.758514,-174.257065 18.423321,-171.411453"
              class="n9 n15" stroke-opacity="0.4" stroke="#bbccde"/>
        <path fill="none" stroke-width="0.0"
              d="M -129.145279,-38.070892 C -54.515549,-71.288673 107.255707,-9.170742 140.473480,65.458992"
              class="n9 n33" stroke-opacity="0.4" stroke="#739fbe"/>
        <path fill="none" stroke-width="1.0989684"
              d="M -129.145279,-38.070892 C -82.994583,-19.856632 -41.089920,76.690811 -59.304184,122.841507"
              class="n9 n34" stroke-opacity="0.4" stroke="#558cb1"/>
        <path fill="none" stroke-width="0.12726201"
              d="M -129.145279,-38.070892 C -82.073387,-85.709946 59.993031,-86.560669 107.632080,-39.488773"
              class="n9 n43" stroke-opacity="0.4" stroke="#a1bcd2"/>
        <path fill="none" stroke-width="1.0679214"
              d="M -129.145279,-38.070892 C -108.203270,-42.731712 -69.799034,-18.309937 -65.138214,2.632068"
              class="n9 n49" stroke-opacity="0.4" stroke="#96b5cd"/>
        <path fill="none" stroke-width="0.46187624"
              d="M -129.145279,-38.070892 C -74.544312,-63.147999 44.972782,-18.862217 70.049889,35.738747"
              class="n9 n54" stroke-opacity="0.4" stroke="#6c9bbb"/>
        <path fill="none" stroke-width="0.9530672"
              d="M -129.145279,-38.070892 C -138.420013,-72.255806 -101.054749,-137.445267 -66.869827,-146.720001"
              class="n9 n59" stroke-opacity="0.4" stroke="#bbccde"/>
        <path fill="none" stroke-width="1.9741528"
              d="M -129.145279,-38.070892 C -87.789673,-45.229401 -15.018492,6.066250 -7.859985,47.421860"
              class="n9 n63" stroke-opacity="0.4" stroke="#6295b7"/>
        <path fill="none" stroke-width="2.669259"
              d="M -129.145279,-38.070892 C -145.712769,-50.305885 -152.211487,-93.509598 -139.976501,-110.077080"
              class="n9 n73" stroke-opacity="0.4" stroke="#bdcddf"/>
        <path fill="none" stroke-width="3.8811815"
              d="M -44.888859,-80.287910 C -50.451130,-111.175056 -12.463824,-165.849167 18.423321,-171.411453"
              class="n10 n15" stroke-opacity="0.4" stroke="#9bb8d0"/>
        <path fill="none" stroke-width="0.026296351"
              d="M -44.888859,-80.287910 C 12.017212,-101.404221 129.050781,-47.719582 150.167084,9.186490"
              class="n10 n20" stroke-opacity="0.4" stroke="#9ebad1"/>
        <path fill="none" stroke-width="0.46986893"
              d="M -44.888859,-80.287910 C 9.548985,-115.052795 143.353088,-85.543381 178.117981,-31.105532"
              class="n10 n29" stroke-opacity="0.4" stroke="#9cb8d0"/>
        <path fill="none" stroke-width="2.979589"
              d="M -44.888859,-80.287910 C 21.332985,-88.210999 132.550400,-0.762852 140.473480,65.458992"
              class="n10 n33" stroke-opacity="0.4" stroke="#538baf"/>
        <path fill="none" stroke-width="1.1793385"
              d="M -44.888859,-80.287910 C -7.146038,-36.778961 -15.795235,85.098686 -59.304184,122.841507"
              class="n10 n34" stroke-opacity="0.4" stroke="#3578a2"/>
        <path fill="none" stroke-width="1.9050164"
              d="M -44.888859,-80.287910 C -23.954874,-113.343903 57.030087,-131.526932 90.086082,-110.592941"
              class="n10 n35" stroke-opacity="0.4" stroke="#9bb8cf"/>
        <path fill="none" stroke-width="5.5604854"
              d="M -44.888859,-80.287910 C -6.224843,-102.632271 85.287720,-78.152786 107.632080,-39.488773"
              class="n10 n43" stroke-opacity="0.4" stroke="#81a8c4"/>
        <path fill="none" stroke-width="6.8297234"
              d="M -44.888859,-80.287910 C -32.354733,-59.654045 -44.504345,-9.902057 -65.138214,2.632068"
              class="n10 n49" stroke-opacity="0.4" stroke="#76a1bf"/>
        <path fill="none" stroke-width="0.43080136"
              d="M -44.888859,-80.287910 C -34.171951,-39.426861 -79.388161,37.940079 -120.249207,48.656990"
              class="n10 n50" stroke-opacity="0.4" stroke="#548cb0"/>
        <path fill="none" stroke-width="5.3074985"
              d="M -44.888859,-80.287910 C -62.015930,-103.500053 -52.888325,-164.008881 -29.676184,-181.135941"
              class="n10 n51" stroke-opacity="0.4" stroke="#9bb8d0"/>
        <path fill="none" stroke-width="6.7145057"
              d="M -44.888859,-80.287910 C 1.304222,-80.070328 70.267471,-10.454334 70.049889,35.738747"
              class="n10 n54" stroke-opacity="0.4" stroke="#4c87ad"/>
        <path fill="none" stroke-width="1.7760221"
              d="M -44.888859,-80.287910 C -37.258392,-123.097595 38.401833,-175.866409 81.211517,-168.235947"
              class="n10 n55" stroke-opacity="0.4" stroke="#9ebad1"/>
        <path fill="none" stroke-width="0.22638318"
              d="M -44.888859,-80.287910 C 13.361849,-57.094055 65.947128,65.072784 42.753269,123.323494"
              class="n10 n58" stroke-opacity="0.4" stroke="#4180a7"/>
        <path fill="none" stroke-width="5.1396327"
              d="M -44.888859,-80.287910 C -62.571472,-89.178131 -75.760056,-129.037384 -66.869827,-146.720001"
              class="n10 n59" stroke-opacity="0.4" stroke="#9bb8cf"/>
        <path fill="none" stroke-width="0.8540577"
              d="M -44.888859,-80.287910 C -4.718012,-129.401886 129.209229,-142.816574 178.323196,-102.645729"
              class="n10 n61" stroke-opacity="0.4" stroke="#9ebad1"/>
        <path fill="none" stroke-width="8.121512"
              d="M -44.888859,-80.287910 C -11.941130,-62.151730 10.276196,14.474129 -7.859985,47.421860"
              class="n10 n63" stroke-opacity="0.4" stroke="#4281a8"/>
        <path fill="none" stroke-width="1.0801057"
              d="M -44.888859,-80.287910 C -69.864220,-67.228210 -126.916801,-85.101715 -139.976501,-110.077080"
              class="n10 n73" stroke-opacity="0.4" stroke="#9db9d0"/>
        <path fill="none" stroke-width="0.2174967"
              d="M 250.913986,26.786587 C 227.244583,43.415947 166.796448,32.855888 150.167084,9.186490"
              class="n11 n20" stroke-opacity="0.4" stroke="#d6ddea"/>
        <path fill="none" stroke-width="0.816779"
              d="M 250.913986,26.786587 C 224.776352,29.767363 181.098755,-4.967906 178.117981,-31.105532"
              class="n11 n29" stroke-opacity="0.4" stroke="#d4dbe9"/>
        <path fill="none" stroke-width="0.4737532"
              d="M 250.913986,26.786587 C 236.560364,56.609169 170.296066,79.812614 140.473480,65.458992"
              class="n11 n33" stroke-opacity="0.4" stroke="#8baec8"/>
        <path fill="none" stroke-width="1.8314651"
              d="M 250.913986,26.786587 C 262.297058,49.515438 245.278412,100.683327 222.549561,112.066406"
              class="n11 n60" stroke-opacity="0.4" stroke="#d3dbe8"/>
        <path fill="none" stroke-width="0.45625925"
              d="M 250.913986,26.786587 C 210.509369,15.418282 166.954895,-62.241104 178.323196,-102.645729"
              class="n11 n61" stroke-opacity="0.4" stroke="#d6ddea"/>
        <path fill="none" stroke-width="0.21615522"
              d="M 250.913986,26.786587 C 203.286255,82.668434 48.021862,95.049591 -7.859985,47.421860"
              class="n11 n63" stroke-opacity="0.4" stroke="#7aa4c1"/>
        <path fill="none" stroke-width="5.6153975"
              d="M -9.527428,194.693024 C -33.853085,190.278076 -63.719135,147.167160 -59.304184,122.841507"
              class="n12 n34" stroke-opacity="0.4" stroke="#598fb3"/>
        <path fill="none" stroke-width="7.102774"
              d="M -9.527428,194.693024 C -13.345195,169.962967 18.023224,127.141258 42.753269,123.323494"
              class="n12 n58" stroke-opacity="0.4" stroke="#6597b8"/>
        <path fill="none" stroke-width="0.83608896"
              d="M -9.527428,194.693024 C -38.648170,164.905289 -37.647705,76.542603 -7.859985,47.421860"
              class="n12 n63" stroke-opacity="0.4" stroke="#6798b9"/>
        <path fill="none" stroke-width="0.020511732"
              d="M 18.423321,-171.411453 C 44.919579,-173.580307 87.917229,-137.089203 90.086082,-110.592941"
              class="n15 n35" stroke-opacity="0.4" stroke="#d0d9e7"/>
        <path fill="none" stroke-width="0.95960623"
              d="M 18.423321,-171.411453 C 62.649609,-162.868668 116.174866,-83.715057 107.632080,-39.488773"
              class="n15 n43" stroke-opacity="0.4" stroke="#b6c9dc"/>
        <path fill="none" stroke-width="3.5055432"
              d="M 18.423321,-171.411453 C 36.519714,-119.890442 -13.617199,-15.464327 -65.138214,2.632068"
              class="n15 n49" stroke-opacity="0.4" stroke="#abc2d7"/>
        <path fill="none" stroke-width="0.9463047"
              d="M 18.423321,-171.411453 C 6.858522,-163.736450 -22.001179,-169.571136 -29.676184,-181.135941"
              class="n15 n51" stroke-opacity="0.4" stroke="#d1dae8"/>
        <path fill="none" stroke-width="1.9593139"
              d="M 18.423321,-171.411453 C 70.178680,-140.306732 101.154617,-16.016609 70.049889,35.738747"
              class="n15 n54" stroke-opacity="0.4" stroke="#82a8c5"/>
        <path fill="none" stroke-width="3.915498"
              d="M 18.423321,-171.411453 C 31.616062,-183.333984 69.288979,-181.428680 81.211517,-168.235947"
              class="n15 n55" stroke-opacity="0.4" stroke="#d3dbe9"/>
        <path fill="none" stroke-width="2.3188834"
              d="M 18.423321,-171.411453 C 6.302981,-149.414536 -44.872906,-134.599670 -66.869827,-146.720001"
              class="n15 n59" stroke-opacity="0.4" stroke="#d0d9e7"/>
        <path fill="none" stroke-width="0.4262183"
              d="M 18.423321,-171.411453 C 64.156441,-189.638290 160.096359,-148.378845 178.323196,-102.645729"
              class="n15 n61" stroke-opacity="0.4" stroke="#d4dce9"/>
        <path fill="none" stroke-width="2.362142"
              d="M 18.423321,-171.411453 C 56.933327,-122.388130 41.163342,8.911855 -7.859985,47.421860"
              class="n15 n63" stroke-opacity="0.4" stroke="#78a2c0"/>
        <path fill="none" stroke-width="0.9033807"
              d="M 18.423321,-171.411453 C -0.989772,-127.464607 -96.029655,-90.663986 -139.976501,-110.077080"
              class="n15 n73" stroke-opacity="0.4" stroke="#d2dbe8"/>
        <path fill="none" stroke-width="1.7628881"
              d="M 150.167084,9.186490 C 147.698853,-4.462094 164.469391,-28.637306 178.117981,-31.105532"
              class="n20 n29" stroke-opacity="0.4" stroke="#d4dce9"/>
        <path fill="none" stroke-width="0.837738"
              d="M 150.167084,9.186490 C 105.795143,50.936665 -23.388041,47.004009 -65.138214,2.632068"
              class="n20 n49" stroke-opacity="0.4" stroke="#aec4d8"/>
        <path fill="none" stroke-width="0.2759577"
              d="M 150.167084,9.186490 C 139.454102,30.520378 91.383774,46.451733 70.049889,35.738747"
              class="n20 n54" stroke-opacity="0.4" stroke="#85aac6"/>
        <path fill="none" stroke-width="0.11516165"
              d="M 150.167084,9.186490 C 185.219574,15.285978 228.649048,77.013924 222.549561,112.066406"
              class="n20 n60" stroke-opacity="0.4" stroke="#d3dce8"/>
        <path fill="none" stroke-width="0.7510801"
              d="M 150.167084,9.186490 C 126.208740,48.438980 31.392502,71.380196 -7.859985,47.421860"
              class="n20 n63" stroke-opacity="0.4" stroke="#7ba4c1"/>
        <path fill="none" stroke-width="2.6075559"
              d="M 139.645279,150.483459 C 122.806015,133.312927 123.302948,82.298241 140.473480,65.458992"
              class="n28 n33" stroke-opacity="0.4" stroke="#89adc7"/>
        <path fill="none" stroke-width="0.020036604"
              d="M 139.645279,150.483459 C 94.326996,184.744965 -25.042681,168.159790 -59.304184,122.841507"
              class="n28 n34" stroke-opacity="0.4" stroke="#6b9aba"/>
        <path fill="none" stroke-width="2.0783882"
              d="M 139.645279,150.483459 C 148.542725,126.219193 198.285294,103.168961 222.549561,112.066406"
              class="n28 n60" stroke-opacity="0.4" stroke="#d1dae7"/>
        <path fill="none" stroke-width="0.33310556"
              d="M 139.645279,150.483459 C 89.531906,159.372192 1.028748,97.535233 -7.859985,47.421860"
              class="n28 n63" stroke-opacity="0.4" stroke="#78a3c0"/>
        <path fill="none" stroke-width="0.9399053"
              d="M 178.117981,-31.105532 C 136.214249,24.293224 -9.739457,44.535786 -65.138214,2.632068"
              class="n29 n49" stroke-opacity="0.4" stroke="#acc2d7"/>
        <path fill="none" stroke-width="0.81753355"
              d="M 178.117981,-31.105532 C 169.873215,3.876944 105.032364,43.983509 70.049889,35.738747"
              class="n29 n54" stroke-opacity="0.4" stroke="#82a8c5"/>
        <path fill="none" stroke-width="0.54976386"
              d="M 178.117981,-31.105532 C 215.638687,-11.357460 242.297623,74.545708 222.549561,112.066406"
              class="n29 n60" stroke-opacity="0.4" stroke="#d1dae7"/>
        <path fill="none" stroke-width="1.0388027"
              d="M 178.117981,-31.105532 C 163.850983,-45.454613 163.974106,-88.378738 178.323196,-102.645729"
              class="n29 n61" stroke-opacity="0.4" stroke="#d4dce9"/>
        <path fill="none" stroke-width="1.2732619"
              d="M 178.117981,-31.105532 C 156.627869,21.795542 45.041088,68.911972 -7.859985,47.421860"
              class="n29 n63" stroke-opacity="0.4" stroke="#78a2c0"/>
        <path fill="none" stroke-width="2.336293"
              d="M 140.473480,65.458992 C 111.994446,116.891029 -7.872145,151.320541 -59.304184,122.841507"
              class="n33 n34" stroke-opacity="0.4" stroke="#226c9a"/>
        <path fill="none" stroke-width="0.9307112"
              d="M 140.473480,65.458992 C 112.915642,51.037716 93.210808,-11.930940 107.632080,-39.488773"
              class="n33 n43" stroke-opacity="0.4" stroke="#6e9cbb"/>
        <path fill="none" stroke-width="2.21272"
              d="M 140.473480,65.458992 C 86.785759,94.015945 -36.581261,56.319790 -65.138214,2.632068"
              class="n33 n49" stroke-opacity="0.4" stroke="#6395b6"/>
        <path fill="none" stroke-width="0.20743634"
              d="M 140.473480,65.458992 C 84.968544,114.243134 -71.465065,104.161926 -120.249207,48.656990"
              class="n33 n50" stroke-opacity="0.4" stroke="#4180a7"/>
        <path fill="none" stroke-width="3.013263"
              d="M 140.473480,65.458992 C 120.444717,73.599663 78.190559,55.767517 70.049889,35.738747"
              class="n33 n54" stroke-opacity="0.4" stroke="#397ba4"/>
        <path fill="none" stroke-width="0.3610224"
              d="M 140.473480,65.458992 C 132.502335,96.575935 73.870209,131.294632 42.753269,123.323494"
              class="n33 n58" stroke-opacity="0.4" stroke="#2e749f"/>
        <path fill="none" stroke-width="2.2145085"
              d="M 140.473480,65.458992 C 166.210190,58.365257 215.455826,86.329712 222.549561,112.066406"
              class="n33 n60" stroke-opacity="0.4" stroke="#88acc7"/>
        <path fill="none" stroke-width="5.025477"
              d="M 140.473480,65.458992 C 107.199356,91.518257 18.199280,80.695976 -7.859985,47.421860"
              class="n33 n63" stroke-opacity="0.4" stroke="#2f75a0"/>
        <path fill="none" stroke-width="0.70396453"
              d="M -59.304184,122.841507 C -58.382984,56.988194 41.778770,-40.409973 107.632080,-39.488773"
              class="n34 n43" stroke-opacity="0.4" stroke="#5089ae"/>
        <path fill="none" stroke-width="2.9879446"
              d="M -59.304184,122.841507 C -84.512878,99.966431 -88.013298,27.840763 -65.138214,2.632068"
              class="n34 n49" stroke-opacity="0.4" stroke="#4582a9"/>
        <path fill="none" stroke-width="8.027282"
              d="M -59.304184,122.841507 C -86.330093,120.193604 -122.897110,75.682899 -120.249207,48.656990"
              class="n34 n50" stroke-opacity="0.4" stroke="#236d9a"/>
        <path fill="none" stroke-width="5.097938"
              d="M -59.304184,122.841507 C -50.853924,79.550148 26.758526,27.288485 70.049889,35.738747"
              class="n34 n54" stroke-opacity="0.4" stroke="#1b6897"/>
        <path fill="none" stroke-width="12.973534"
              d="M -59.304184,122.841507 C -38.796295,102.526413 22.438175,102.815605 42.753269,123.323494"
              class="n34 n58" stroke-opacity="0.4" stroke="#106192"/>
        <path fill="none" stroke-width="7.6436243"
              d="M -59.304184,122.841507 C -64.099274,97.468735 -33.232754,52.216949 -7.859985,47.421860"
              class="n34 n63" stroke-opacity="0.4" stroke="#116293"/>
        <path fill="none" stroke-width="0.15327874"
              d="M 90.086082,-110.592941 C 107.816116,-99.881310 118.343712,-57.218811 107.632080,-39.488773"
              class="n35 n43" stroke-opacity="0.4" stroke="#b6c9db"/>
        <path fill="none" stroke-width="1.455296"
              d="M 90.086082,-110.592941 C 81.686218,-56.903076 -11.448353,11.031929 -65.138214,2.632068"
              class="n35 n49" stroke-opacity="0.4" stroke="#abc2d6"/>
        <path fill="none" stroke-width="0.86129534"
              d="M 90.086082,-110.592941 C 115.345184,-77.319359 103.323471,10.479645 70.049889,35.738747"
              class="n35 n54" stroke-opacity="0.4" stroke="#81a8c4"/>
        <path fill="none" stroke-width="0.17107983"
              d="M 90.086082,-110.592941 C 51.469490,-86.427170 -42.704056,-108.103401 -66.869827,-146.720001"
              class="n35 n59" stroke-opacity="0.4" stroke="#d0d9e7"/>
        <path fill="none" stroke-width="0.27741098"
              d="M 90.086082,-110.592941 C 109.322945,-126.650925 162.265228,-121.882591 178.323196,-102.645729"
              class="n35 n61" stroke-opacity="0.4" stroke="#d3dbe8"/>
        <path fill="none" stroke-width="1.4059452"
              d="M 90.086082,-110.592941 C 102.099831,-59.400772 43.332188,35.408112 -7.859985,47.421860"
              class="n35 n63" stroke-opacity="0.4" stroke="#77a2c0"/>
        <path fill="none" stroke-width="4.032644"
              d="M 107.632080,-39.488773 C 81.502190,3.489452 -22.159988,28.761957 -65.138214,2.632068"
              class="n43 n49" stroke-opacity="0.4" stroke="#91b2cb"/>
        <path fill="none" stroke-width="0.39788213"
              d="M 107.632080,-39.488773 C 51.840988,-40.356556 -30.543968,-125.344849 -29.676184,-181.135941"
              class="n43 n51" stroke-opacity="0.4" stroke="#b6c9dc"/>
        <path fill="none" stroke-width="3.3322"
              d="M 107.632080,-39.488773 C 115.161148,-16.926828 92.611832,28.209681 70.049889,35.738747"
              class="n43 n54" stroke-opacity="0.4" stroke="#6798b9"/>
        <path fill="none" stroke-width="0.30250555"
              d="M 107.632080,-39.488773 C 76.598534,-59.954094 60.746193,-137.202393 81.211517,-168.235947"
              class="n43 n55" stroke-opacity="0.4" stroke="#b9cbdd"/>
        <path fill="none" stroke-width="0.7554116"
              d="M 107.632080,-39.488773 C 127.218781,6.049448 88.291489,103.736794 42.753269,123.323494"
              class="n43 n58" stroke-opacity="0.4" stroke="#5c91b3"/>
        <path fill="none" stroke-width="1.7041473"
              d="M 107.632080,-39.488773 C 51.285461,-26.034641 -53.415695,-90.373383 -66.869827,-146.720001"
              class="n43 n59" stroke-opacity="0.4" stroke="#b6c9db"/>
        <path fill="none" stroke-width="4.1770635"
              d="M 107.632080,-39.488773 C 101.915794,0.991766 32.620552,53.138145 -7.859985,47.421860"
              class="n43 n63" stroke-opacity="0.4" stroke="#5d92b4"/>
        <path fill="none" stroke-width="2.9224412"
              d="M -65.138214,2.632068 C -66.955429,22.859249 -100.022018,50.474205 -120.249207,48.656990"
              class="n49 n50" stroke-opacity="0.4" stroke="#6496b7"/>
        <path fill="none" stroke-width="1.4933298"
              d="M -65.138214,2.632068 C -94.799408,-41.213940 -73.522186,-151.474747 -29.676184,-181.135941"
              class="n49 n51" stroke-opacity="0.4" stroke="#abc2d7"/>
        <path fill="none" stroke-width="7.053843"
              d="M -65.138214,2.632068 C -31.479258,-17.784220 49.633602,2.079788 70.049889,35.738747"
              class="n49 n54" stroke-opacity="0.4" stroke="#5c91b4"/>
        <path fill="none" stroke-width="1.7382405"
              d="M -65.138214,2.632068 C -70.041870,-60.811478 17.767971,-163.332291 81.211517,-168.235947"
              class="n49 n55" stroke-opacity="0.4" stroke="#aec4d8"/>
        <path fill="none" stroke-width="2.0033271"
              d="M -65.138214,2.632068 C -19.421635,5.192060 45.313263,77.606918 42.753269,123.323494"
              class="n49 n58" stroke-opacity="0.4" stroke="#518aae"/>
        <path fill="none" stroke-width="3.2695193"
              d="M -65.138214,2.632068 C -95.354950,-26.892023 -96.393921,-116.503265 -66.869827,-146.720001"
              class="n49 n59" stroke-opacity="0.4" stroke="#abc2d6"/>
        <path fill="none" stroke-width="1.7761616"
              d="M -65.138214,2.632068 C -37.501488,-67.115776 108.575363,-130.282455 178.323196,-102.645729"
              class="n49 n61" stroke-opacity="0.4" stroke="#aec4d8"/>
        <path fill="none" stroke-width="9.075223"
              d="M -65.138214,2.632068 C -44.724609,0.134380 -10.357672,27.008255 -7.859985,47.421860"
              class="n49 n63" stroke-opacity="0.4" stroke="#528baf"/>
        <path fill="none" stroke-width="1.3403863"
              d="M -65.138214,2.632068 C -102.647705,-4.942104 -147.550674,-72.567589 -139.976501,-110.077080"
              class="n49 n73" stroke-opacity="0.4" stroke="#adc3d7"/>
        <path fill="none" stroke-width="2.4670203"
              d="M -120.249207,48.656990 C -84.773033,8.013519 29.406418,0.262573 70.049889,35.738747"
              class="n50 n54" stroke-opacity="0.4" stroke="#3a7ca5"/>
        <path fill="none" stroke-width="0.7858157"
              d="M -120.249207,48.656990 C -72.715408,30.989796 25.086075,75.789696 42.753269,123.323494"
              class="n50 n58" stroke-opacity="0.4" stroke="#2f759f"/>
        <path fill="none" stroke-width="5.130411"
              d="M -120.249207,48.656990 C -98.018387,25.932121 -30.584856,25.191040 -7.859985,47.421860"
              class="n50 n63" stroke-opacity="0.4" stroke="#3076a0"/>
        <path fill="none" stroke-width="0.60677177"
              d="M -29.676184,-181.135941 C 33.643970,-157.706223 93.479614,-27.581408 70.049889,35.738747"
              class="n51 n54" stroke-opacity="0.4" stroke="#82a8c5"/>
        <path fill="none" stroke-width="3.3319206"
              d="M -29.676184,-181.135941 C -30.231726,-166.814026 -52.547913,-146.164459 -66.869827,-146.720001"
              class="n51 n59" stroke-opacity="0.4" stroke="#d0d9e7"/>
        <path fill="none" stroke-width="1.2912027"
              d="M -29.676184,-181.135941 C 20.398615,-139.787613 33.488335,-2.652939 -7.859985,47.421860"
              class="n51 n63" stroke-opacity="0.4" stroke="#78a2c0"/>
        <path fill="none" stroke-width="1.0948046"
              d="M 70.049889,35.738747 C 31.487270,-7.288520 38.184254,-129.673340 81.211517,-168.235947"
              class="n54 n55" stroke-opacity="0.4" stroke="#84aac6"/>
        <path fill="none" stroke-width="2.003495"
              d="M 70.049889,35.738747 C 82.107513,58.715023 65.729546,111.265869 42.753269,123.323494"
              class="n54 n58" stroke-opacity="0.4" stroke="#27709c"/>
        <path fill="none" stroke-width="1.7086463"
              d="M 70.049889,35.738747 C 6.174198,26.630938 -75.977631,-82.844315 -66.869827,-146.720001"
              class="n54 n59" stroke-opacity="0.4" stroke="#81a8c4"/>
        <path fill="none" stroke-width="0.88597083"
              d="M 70.049889,35.738747 C 64.027657,-13.592813 128.991638,-96.623497 178.323196,-102.645729"
              class="n54 n61" stroke-opacity="0.4" stroke="#85aac6"/>
        <path fill="none" stroke-width="10.64244"
              d="M 70.049889,35.738747 C 56.804539,53.657345 10.058613,60.667210 -7.859985,47.421860"
              class="n54 n63" stroke-opacity="0.4" stroke="#29719d"/>
        <path fill="none" stroke-width="0.31133628"
              d="M 70.049889,35.738747 C -1.118561,48.580864 -127.134384,-38.908627 -139.976501,-110.077080"
              class="n54 n73" stroke-opacity="0.4" stroke="#83a9c5"/>
        <path fill="none" stroke-width="0.802611"
              d="M 81.211517,-168.235947 C 55.898434,-134.316483 -32.950367,-121.406921 -66.869827,-146.720001"
              class="n55 n59" stroke-opacity="0.4" stroke="#d3dbe8"/>
        <path fill="none" stroke-width="0.6496395"
              d="M 81.211517,-168.235947 C 113.751892,-174.540237 172.018906,-135.186111 178.323196,-102.645729"
              class="n55 n61" stroke-opacity="0.4" stroke="#d6ddea"/>
        <path fill="none" stroke-width="0.8816676"
              d="M 81.211517,-168.235947 C 106.528778,-107.290085 53.085876,22.104601 -7.859985,47.421860"
              class="n55 n63" stroke-opacity="0.4" stroke="#7aa4c1"/>
        <path fill="none" stroke-width="4.751559"
              d="M 42.753269,123.323494 C 17.450293,118.265816 -12.917662,72.724838 -7.859985,47.421860"
              class="n58 n63" stroke-opacity="0.4" stroke="#1d6a98"/>
        <path fill="none" stroke-width="2.5383642"
              d="M -66.869827,-146.720001 C -16.239483,-119.693604 19.166418,-3.208483 -7.859985,47.421860"
              class="n59 n63" stroke-opacity="0.4" stroke="#77a2c0"/>
        <path fill="none" stroke-width="0.8585291"
              d="M -66.869827,-146.720001 C -74.162582,-124.770081 -118.026581,-102.784332 -139.976501,-110.077080"
              class="n59 n73" stroke-opacity="0.4" stroke="#d2dae8"/>
        <path fill="none" stroke-width="0.75608206"
              d="M 222.549561,112.066406 C 163.538742,145.219406 25.293015,106.432678 -7.859985,47.421860"
              class="n60 n63" stroke-opacity="0.4" stroke="#77a2c0"/>
        <path fill="none" stroke-width="0.9318568"
              d="M 178.323196,-102.645729 C 171.100082,-35.395573 59.390175,54.644974 -7.859985,47.421860"
              class="n61 n63" stroke-opacity="0.4" stroke="#7ba4c1"/>
        <path fill="none" stroke-width="0.9890325"
              d="M -7.859985,47.421860 C -65.783073,42.345375 -145.052979,-52.153992 -139.976501,-110.077080"
              class="n63 n73" stroke-opacity="0.4" stroke="#79a3c1"/>
    </g>
    <g id="nodes">
        <circle fill-opacity="1.0" fill="#ccd7e5" r="8.765547" cx="-146.68242"
                class="n0" cy="151.91753" stroke="#ccd7e5" stroke-opacity="1.0"
                stroke-width="2.0"/>
        <circle fill-opacity="1.0" fill="#c8d4e4" r="9.515873" cx="-183.62512"
                class="n4" cy="15.014812" stroke="#c8d4e4" stroke-opacity="1.0"
                stroke-width="2.0"/>
        <circle fill-opacity="1.0" fill="#cad5e4" r="9.171451" cx="19.797825"
                class="n5" cy="-114.09346" stroke="#cad5e4" stroke-opacity="1.0"
                stroke-width="2.0"/>
        <circle fill-opacity="1.0" fill="#3b7ca5" r="19.572384" cx="21.174559"
                class="n8" cy="-28.516" stroke="#3b7ca5" stroke-opacity="1.0"
                stroke-width="2.0"/>
        <circle fill-opacity="1.0" fill="#a6bfd5" r="13.030621" cx="-129.14528"
                class="n9" cy="-38.070892" stroke="#a6bfd5" stroke-opacity="1.0"
                stroke-width="2.0"/>
        <circle fill-opacity="1.0" fill="#6697b8" r="16.94379" cx="-44.88886"
                class="n10" cy="-80.28791" stroke="#6697b8" stroke-opacity="1.0"
                stroke-width="2.0"/>
        <circle fill-opacity="1.0" fill="#d6ddea" r="6.5053306" cx="250.91399"
                class="n11" cy="26.786587" stroke="#d6ddea" stroke-opacity="1.0"
                stroke-width="2.0"/>
        <circle fill-opacity="1.0" fill="#afc5d9" r="12.473699" cx="-9.527428"
                class="n12" cy="194.69302" stroke="#afc5d9" stroke-opacity="1.0"
                stroke-width="2.0"/>
        <circle fill-opacity="1.0" fill="#d1dae8" r="7.6512585" cx="18.42332"
                class="n15" cy="-171.41145" stroke="#d1dae8"
                stroke-opacity="1.0" stroke-width="2.0"/>
        <circle fill-opacity="1.0" fill="#d7deea" r="6.3346343" cx="150.16708"
                class="n20" cy="9.18649" stroke="#d7deea" stroke-opacity="1.0"
                stroke-width="2.0"/>
        <circle fill-opacity="1.0" fill="#d2dbe8" r="7.429463" cx="139.64528"
                class="n28" cy="150.48346" stroke="#d2dbe8" stroke-opacity="1.0"
                stroke-width="2.0"/>
        <circle fill-opacity="1.0" fill="#d2dae8" r="7.4652586" cx="178.11798"
                class="n29" cy="-31.105532" stroke="#d2dae8"
                stroke-opacity="1.0" stroke-width="2.0"/>
        <circle fill-opacity="1.0" fill="#407fa7" r="19.292105" cx="140.47348"
                class="n33" cy="65.45899" stroke="#407fa7" stroke-opacity="1.0"
                stroke-width="2.0"/>
        <circle fill-opacity="1.0" fill="#045a8d" r="23.0" cx="-59.304184"
                class="n34" cy="122.84151" stroke="#045a8d" stroke-opacity="1.0"
                stroke-width="2.0"/>
        <circle fill-opacity="1.0" fill="#d0d9e7" r="7.9364514" cx="90.08608"
                class="n35" cy="-110.59294" stroke="#d0d9e7"
                stroke-opacity="1.0" stroke-width="2.0"/>
        <circle fill-opacity="1.0" fill="#9cb9d0" r="13.627617" cx="107.63208"
                class="n43" cy="-39.488773" stroke="#9cb9d0"
                stroke-opacity="1.0" stroke-width="2.0"/>
        <circle fill-opacity="1.0" fill="#86abc6" r="15.0216" cx="-65.138214"
                class="n49" cy="2.6320677" stroke="#86abc6" stroke-opacity="1.0"
                stroke-width="2.0"/>
        <circle fill-opacity="1.0" fill="#4281a8" r="19.175903" cx="-120.24921"
                class="n50" cy="48.65699" stroke="#4281a8" stroke-opacity="1.0"
                stroke-width="2.0"/>
        <circle fill-opacity="1.0" fill="#d1dae8" r="7.6269593" cx="-29.676184"
                class="n51" cy="-181.13594" stroke="#d1dae8"
                stroke-opacity="1.0" stroke-width="2.0"/>
        <circle fill-opacity="1.0" fill="#3377a2" r="20.076338" cx="70.04989"
                class="n54" cy="35.738747" stroke="#3377a2" stroke-opacity="1.0"
                stroke-width="2.0"/>
        <circle fill-opacity="1.0" fill="#d6ddea" r="6.570795" cx="81.21152"
                class="n55" cy="-168.23595" stroke="#d6ddea"
                stroke-opacity="1.0" stroke-width="2.0"/>
        <circle fill-opacity="1.0" fill="#1c6997" r="21.495483" cx="42.75327"
                class="n58" cy="123.323494" stroke="#1c6997"
                stroke-opacity="1.0" stroke-width="2.0"/>
        <circle fill-opacity="1.0" fill="#d0d9e7" r="7.852696" cx="-66.86983"
                class="n59" cy="-146.72" stroke="#d0d9e7" stroke-opacity="1.0"
                stroke-width="2.0"/>
        <circle fill-opacity="1.0" fill="#d0dae7" r="7.7870936" cx="222.54956"
                class="n60" cy="112.06641" stroke="#d0dae7" stroke-opacity="1.0"
                stroke-width="2.0"/>
        <circle fill-opacity="1.0" fill="#d7deea" r="6.3951015" cx="178.3232"
                class="n61" cy="-102.64573" stroke="#d7deea"
                stroke-opacity="1.0" stroke-width="2.0"/>
        <circle fill-opacity="1.0" fill="#1f6b99" r="21.316277" cx="-7.859985"
                class="n63" cy="47.42186" stroke="#1f6b99" stroke-opacity="1.0"
                stroke-width="2.0"/>
        <circle fill-opacity="1.0" fill="#d4dce9" r="6.9601727" cx="-139.9765"
                class="n73" cy="-110.07708" stroke="#d4dce9"
                stroke-opacity="1.0" stroke-width="2.0"/>
    </g>
    <g id="node-labels">
        <text font-size="12" x="-146.68242" y="154.78716" fill="#000000"
              style="text-anchor: middle; dominant-baseline: central;"
              font-family="Georgia" class="n0">
            ActionScript
        </text>
        <text font-size="12" x="-183.62512" y="17.182781" fill="#000000"
              style="text-anchor: middle; dominant-baseline: central;"
              font-family="Georgia" class="n4">
            ASP
        </text>
        <text font-size="12" x="19.797825" y="-111.17549" fill="#000000"
              style="text-anchor: middle; dominant-baseline: central;"
              font-family="Georgia" class="n5">
            Assembly
        </text>
        <text font-size="12" x="21.174559" y="-26.343637" fill="#000000"
              style="text-anchor: middle; dominant-baseline: central;"
              font-family="Georgia" class="n8">
            C
        </text>
        <text font-size="12" x="-129.14528" y="-35.89853" fill="#000000"
              style="text-anchor: middle; dominant-baseline: central;"
              font-family="Georgia" class="n9">
            C#
        </text>
        <text font-size="12" x="-44.88886" y="-78.11555" fill="#000000"
              style="text-anchor: middle; dominant-baseline: central;"
              font-family="Georgia" class="n10">
            C++
        </text>
        <text font-size="12" x="250.91399" y="29.704556" fill="#000000"
              style="text-anchor: middle; dominant-baseline: central;"
              font-family="Georgia" class="n11">
            Clojure
        </text>
        <text font-size="12" x="-9.527428" y="197.61246" fill="#000000"
              style="text-anchor: middle; dominant-baseline: central;"
              font-family="Georgia" class="n12">
            CoffeeScript
        </text>
        <text font-size="12" x="18.42332" y="-169.33284" fill="#000000"
              style="text-anchor: middle; dominant-baseline: central;"
              font-family="Georgia" class="n15">
            D
        </text>
        <text font-size="12" x="150.16708" y="12.104459" fill="#000000"
              style="text-anchor: middle; dominant-baseline: central;"
              font-family="Georgia" class="n20">
            Erlang
        </text>
        <text font-size="12" x="139.64528" y="153.25787" fill="#000000"
              style="text-anchor: middle; dominant-baseline: central;"
              font-family="Georgia" class="n28">
            Groovy
        </text>
        <text font-size="12" x="178.11798" y="-28.799868" fill="#000000"
              style="text-anchor: middle; dominant-baseline: central;"
              font-family="Georgia" class="n29">
            Haskell
        </text>
        <text font-size="12" x="140.47348" y="67.58741" fill="#000000"
              style="text-anchor: middle; dominant-baseline: central;"
              font-family="Georgia" class="n33">
            Java
        </text>
        <text font-size="12" x="-59.304184" y="125.711136" fill="#000000"
              style="text-anchor: middle; dominant-baseline: central;"
              font-family="Georgia" class="n34">
            JavaScript
        </text>
        <text font-size="12" x="90.08608" y="-108.47771" fill="#000000"
              style="text-anchor: middle; dominant-baseline: central;"
              font-family="Georgia" class="n35">
            Lua
        </text>
        <text font-size="12" x="107.63208" y="-36.570805" fill="#000000"
              style="text-anchor: middle; dominant-baseline: central;"
              font-family="Georgia" class="n43">
            Objective-C
        </text>
        <text font-size="12" x="-65.138214" y="4.9377317" fill="#000000"
              style="text-anchor: middle; dominant-baseline: central;"
              font-family="Georgia" class="n49">
            Perl
        </text>
        <text font-size="12" x="-120.24921" y="50.735603" fill="#000000"
              style="text-anchor: middle; dominant-baseline: central;"
              font-family="Georgia" class="n50">
            PHP
        </text>
        <text font-size="12" x="-29.676184" y="-178.21797" fill="#000000"
              style="text-anchor: middle; dominant-baseline: central;"
              font-family="Georgia" class="n51">
            Prolog
        </text>
        <text font-size="12" x="70.04989" y="38.656715" fill="#000000"
              style="text-anchor: middle; dominant-baseline: central;"
              font-family="Georgia" class="n54">
            Python
        </text>
        <text font-size="12" x="81.21152" y="-166.15733" fill="#000000"
              style="text-anchor: middle; dominant-baseline: central;"
              font-family="Georgia" class="n55">
            R
        </text>
        <text font-size="12" x="42.75327" y="126.24146" fill="#000000"
              style="text-anchor: middle; dominant-baseline: central;"
              font-family="Georgia" class="n58">
            Ruby
        </text>
        <text font-size="12" x="-66.86983" y="-144.6033" fill="#000000"
              style="text-anchor: middle; dominant-baseline: central;"
              font-family="Georgia" class="n59">
            Rust
        </text>
        <text font-size="12" x="222.54956" y="114.376465" fill="#000000"
              style="text-anchor: middle; dominant-baseline: central;"
              font-family="Georgia" class="n60">
            Scala
        </text>
        <text font-size="12" x="178.3232" y="-100.33567" fill="#000000"
              style="text-anchor: middle; dominant-baseline: central;"
              font-family="Georgia" class="n61">
            Scheme
        </text>
        <text font-size="12" x="-7.859985" y="49.73192" fill="#000000"
              style="text-anchor: middle; dominant-baseline: central;"
              font-family="Georgia" class="n63">
            Shell
        </text>
        <text font-size="12" x="-139.9765" y="-107.771416" fill="#000000"
              style="text-anchor: middle; dominant-baseline: central;"
              font-family="Georgia" class="n73">
            Visual Basic
        </text>
    </g>
</svg>